<svg width="1584" height="792" xmlns="http://www.w3.org/2000/svg" xmlns:xlink="http://www.w3.org/1999/xlink" xml:space="preserve" overflow="hidden"><defs><clipPath id="clip0"><rect x="2354" y="842" width="1584" height="792"/></clipPath></defs><g clip-path="url(#clip0)" transform="translate(-2354 -842)"><path d="M3268.77 977.434C3598.36 977.434 3865.54 1094.09 3865.54 1238 3865.54 1381.91 3598.36 1498.57 3268.77 1498.57 2939.19 1498.57 2672 1381.91 2672 1238 2672 1094.09 2939.19 977.434 3268.77 977.434ZM3786.24 842C3835.68 842 3884.54 842.693 3932.68 844.044L3938 844.269 3801.11 850.045C3148.46 886.971 2657.51 1046.63 2657.51 1238 2657.51 1429.37 3148.46 1589.03 3801.11 1625.95L3938 1631.73 3932.68 1631.96C3884.54 1633.31 3835.68 1634 3786.24 1634 2995.24 1634 2354 1456.7 2354 1238 2354 1019.29 2995.24 842 3786.24 842Z" fill="#CCCC00" fill-rule="evenodd"/></g></svg>