<?xml version="1.0" encoding="UTF-8"?>
<svg width="3600pt" height="3600pt" version="1.1" viewBox="0 0 3600 3600" xmlns="http://www.w3.org/2000/svg">
 <path d="m1800 1568.8c138.56 0.027344 272.96 47.309 381.02 134.04 108.06 86.727 183.3 207.71 213.32 342.98h-1188.7c30-135.27 105.25-256.27 213.31-343 108.06-86.727 242.47-134 381.03-134.02zm0 656.94 170.22 257.23 297.85 82.875-192.01 241.39 13.227 308.88-288.83-108-289.67 108 13.414-308.12-192.28-242.15 297.17-82.27 170.87-257.68zm876.77 100.57 92.465 139.72 161.73 44.98-104.25 131.12 7.125 167.72-156.88-58.66-157.34 58.77 7.3125-167.34-104.4-131.5 161.39-44.754 92.805-139.95zm-1753.5 0 92.312 139.83 161.81 44.98-104.29 131.12 7.1602 167.72-156.88-58.66-157.34 58.66 7.5781-167.34-104.48-131.5 161.39-44.754 92.805-139.95zm876.73-1418.8c49.023-0.023437 96.953 14.496 137.72 41.715 40.773 27.219 72.555 65.922 91.328 111.21 18.773 45.285 23.695 95.121 14.145 143.2-9.5547 48.086-33.152 92.254-67.812 126.93-34.656 34.668-78.82 58.281-126.9 67.848-48.078 9.5664-97.918 4.6602-143.21-14.098-45.293-18.762-84.004-50.531-111.23-91.297-27.234-40.762-41.766-88.688-41.758-137.71 0-65.703 26.098-128.72 72.551-175.19s109.46-72.586 175.17-72.605zm-976.25 1317.4c-94.867-169.82-143.79-361.46-141.94-555.97 1.8555-194.52 54.422-385.19 152.51-553.17s238.3-307.47 406.8-404.69c168.49-97.215 359.43-148.79 553.95-149.63s385.9 49.074 555.23 144.82c169.33 95.746 310.75 234.02 410.29 401.14 99.543 167.13 153.76 357.33 157.3 551.83 3.5391 194.49-43.719 386.54-137.11 557.18-6.7383 12.262-6.4219 27.18 0.82812 39.145 7.25 11.961 20.328 19.148 34.312 18.852s26.75-8.0312 33.484-20.289c99.969-182.57 150.58-388.05 146.84-596.16s-61.723-411.64-168.2-590.49c-106.48-178.85-257.77-326.82-438.93-429.31-181.16-102.48-385.93-155.93-594.07-155.07-208.14 0.86328-412.46 56.016-592.76 160.01-180.3 103.99-330.36 253.22-435.34 432.95-104.98 179.73-161.26 383.73-163.28 591.87-2.0117 208.13 50.309 413.19 151.79 594.92 4.7031 9.6328 13.16 16.91 23.387 20.125 10.227 3.2148 21.324 2.0898 30.695-3.1172 9.3711-5.207 16.191-14.031 18.863-24.414 2.6719-10.383 0.96094-21.406-4.7344-30.488z" fill="#F66A2E" fill-rule="evenodd"/>
</svg>
