<?xml version="1.0" encoding="UTF-8"?>
<svg width="3600pt" height="3600pt" version="1.1" viewBox="0 0 3600 3600" xmlns="http://www.w3.org/2000/svg">
 <path d="m1497.7 973.44c-68.996 0-123.95 55.836-123.88 126.38v99.625c0.082031 70.613 54.875 126.38 123.88 126.38 68.996 0 123.95-55.836 123.88-126.38v-99.43c-0.085938-70.613-54.879-126.57-123.88-126.57zm941.79 0c-68.996 0-124 55.836-123.92 126.38l0.17969 99.625c0.082031 70.613 54.922 126.38 123.92 126.38 68.996 0 123.95-55.832 123.88-126.38l-0.17969-99.43c-0.082031-70.613-54.875-126.57-123.88-126.57zm-470.85 75.484c-68.996 0-123.9 56.031-123.82 126.57v99.43c0.082032 70.613 54.828 126.57 123.82 126.57s124-56.031 123.92-126.57v-99.43c-0.082031-70.613-54.926-126.57-123.92-126.57zm-553.65 279.41-122.23 20.605-124.99 333.25 58.547-34.375c35.25-20.699 78.562-27.734 120.97-16.18l259.27 70.711 112.83-300.8-17.289-52.613-121.36-20.605-65.277 66.336c-9.6914 9.8945-25.469 9.8945-35.156 0zm941.98 0-121.5 20.605-17.289 52.516 91.766 244.89 356.12-240.56-21.258-56.844-122.28-20.605-65.277 66.336c-9.668 9.7656-25.293 9.7656-34.965 0zm452.44 61.617c-20.168-0.015624-43 8.0078-68.379 25.719l-816.61 551.48c-26.516 80.309-110.58 127.02-192.16 104.79l-233.66-63.73c-13.242-3.5781-21.121-17.438-17.578-30.883 3.5273-13.445 17.125-21.445 30.363-17.852l233.7 63.777c59.082 16.102 118.44-18.688 134.29-78.824 15.84-60.137-18.352-120.7-77.434-136.8l-467.46-127.31c-29.543-8.0508-59.016-3.293-83.293 10.965l-304.7 178.89 297.92 524.83 141.5-83.102c3.9453-2.293 8.3906-3.4375 12.93-3.3477l638.06 14.508c29.809 0.625 56.973-12.293 77.047-32.551l747.8-758.9c32.734-33.293 32.734-85.809 0-119.1-14.691-14.504-32.18-22.555-52.348-22.57zm-923.43 13.816-122.28 20.801-109.05 290.86 160.14 43.668c66.371 18.09 111.71 76.531 117.38 142.41l335.5-226.59-93.898-250.34-122.18-20.801-65.375 66.336c-9.668 9.7656-25.293 9.7656-34.965 0zm-982.42 491.59-189.93 111.57 351.86 619.64 189.73-111.53z" fill="#F66A2E"/>
</svg>
