<?xml version="1.0" encoding="UTF-8"?>
<svg width="3600pt" height="3600pt" version="1.1" viewBox="0 0 3600 3600" xmlns="http://www.w3.org/2000/svg">
 <g fill="#F66A2E">
  <path d="m475.2 1634.4 39.602 108 7.1992 21.602h25.199l111.6 3.6016-90 72-18 14.398 7.1992 21.602 32.398 108-93.602-61.199-21.598-14.402-21.602 14.398-93.598 64.801 32.398-108 7.1992-21.602-18-14.398-90-72 111.6-3.6016h25.199l7.1992-21.602 39.602-111.6m0-104.4-72 198-212.4 7.1992 165.6 129.6-57.602 201.6 176.4-118.8 176.4 118.8-57.602-201.6 165.6-129.6-212.4-7.1992z"/>
  <path d="m1137.6 1634.4 39.602 108 7.1992 21.602h25.199l111.6 3.6016-90 72-18 14.398 7.1992 21.602 32.398 108-93.602-61.199-21.598-14.402-21.602 14.398-93.602 61.199 32.398-108 7.1992-21.602-18-14.398-90-72 111.6-3.6016h25.199l7.1992-21.602 39.605-108m0-104.4-72 198-212.4 7.1992 165.6 129.6-57.602 201.6 176.4-118.8 176.4 118.8-57.602-201.6 165.6-129.6-212.4-7.1992z"/>
  <path d="m1800 1634.4 39.602 108 7.1992 21.602h25.199l111.6 3.6016-90 72-18 14.398 7.1992 21.602 32.398 108-93.602-61.199-21.598-14.402-21.602 14.398-93.602 61.199 32.398-108 7.1992-21.602-18-14.398-90-72 111.61-3.5977h25.199l7.1992-21.602 39.602-108m0-104.4-72 198-212.4 7.1992 165.6 129.6-57.602 201.6 176.4-118.8 176.4 118.8-57.602-201.6 165.6-129.6-212.4-7.1992z"/>
  <path d="m2462.4 1634.4 39.602 108 7.1992 21.602h25.199l111.6 3.6016-90 72-18 14.398 7.1992 21.602 32.398 108-93.598-61.203-21.602-14.398-21.602 14.398-93.602 61.199 32.398-108 7.1992-21.602-18-14.398-90-72 111.6-3.6016h25.199l7.1992-21.602 39.605-108m0-104.4-72 198-212.4 7.1992 165.6 129.6-57.602 201.6 176.4-118.8 176.4 118.8-57.602-201.6 165.6-129.6-212.4-7.1992z"/>
  <path d="m3124.8 1634.4 39.602 108 7.1992 21.602h25.199l111.6 3.6016-90 72-14.402 14.398 7.1992 21.602 32.398 108-93.602-61.199-25.195-14.402-21.602 14.398-93.602 61.199 32.398-108 7.1992-21.602-18-14.398-90-72 111.6-3.6016h25.199l7.1992-21.602 39.605-108m0-104.4-72 198-212.4 7.1992 165.6 129.6-54.004 205.2 176.4-118.8 176.4 118.8-57.602-201.6 165.6-129.6-212.4-10.797z"/>
 </g>
</svg>
