<?xml version="1.0" encoding="UTF-8"?>
<svg width="3600pt" height="3600pt" version="1.1" viewBox="0 0 3600 3600" xmlns="http://www.w3.org/2000/svg">
 <g fill="#F66A2E">
  <path d="m1395 2292.2c-14.062-33.75-45-56.25-78.75-67.5l-286.88-81.562v-233.44l-16.875-16.875-112.5-120.94c-11.25-11.25-11.25-28.125-2.8125-39.375 11.25-14.062 30.938-14.062 45-2.8125l90 95.625 25.312 28.125c22.5 25.312 56.25 36.562 90 36.562l281.25-19.688c39.375-2.8125 70.312-36.562 70.312-75.938s-30.938-73.125-70.312-75.938l-247.5-16.875-199.69-303.75-2.8125-2.8125-5.625-8.4375c-8.4375-11.25-16.875-22.5-28.125-30.938l-11.25-11.25c-50.625-45-118.12-73.125-194.06-73.125-157.5 0-286.88 132.19-286.88 292.5v630c0 143.44 104.06 261.56 239.06 284.06h2.8125c11.25 2.8125 22.5 2.8125 33.75 2.8125l447.19 45 275.62 362.81c33.75 45 98.438 53.438 143.44 19.688 36.562-28.125 50.625-81.562 30.938-123.75z"/>
  <path d="m740.93 669.94c138.25 0.16406 250.18 112.36 250.02 250.61-0.16406 138.24-112.37 250.18-250.61 250.02-138.24-0.16797-250.18-112.37-250.02-250.61 0.16406-138.24 112.37-250.18 250.61-250.01"/>
  <path d="m916.88 2638.1-253.12-14.062c-168.75-30.938-298.12-168.75-317.81-337.5v-2.8125l-104.06-635.62c-8.4375-56.25-61.875-95.625-118.12-87.188s-95.625 61.875-87.188 118.12l98.438 632.81c16.875 129.38 73.125 247.5 163.12 340.31 90 95.625 205.31 154.69 334.69 177.19h5.625l267.19 14.062h5.625c56.25 0 101.25-42.188 104.06-98.438s-42.188-104.06-98.438-106.88z"/>
  <path d="m2846.2 2477.8h2.8125c135-22.5 239.06-140.62 239.06-284.06v-632.81c0-160.31-126.56-289.69-286.88-292.5-73.125 0-140.62 28.125-194.06 73.125l-11.25 11.25c-11.25 11.25-19.688 19.688-28.125 30.938l-5.625 8.4375-2.8125 2.8125-196.88 306.56-241.88 16.875c-39.375 2.8125-70.312 36.562-70.312 75.938s30.938 73.125 70.312 75.938l281.25 19.688c33.75 2.8125 67.5-11.25 90-36.562l25.312-28.125 90-95.625c11.25-14.062 33.75-11.25 45 2.8125 8.4375 11.25 8.4375 28.125-2.8125 39.375l-112.5 120.94-16.875 16.875v233.44l-286.88 81.562c-33.75 11.25-61.875 33.75-78.75 67.5l-230.62 492.19c-19.688 42.188-8.4375 95.625 30.938 123.75 45 33.75 109.69 25.312 143.44-19.688l275.62-362.81 447.19-45c5.625 0 14.062-2.8125 25.312-2.8125z"/>
  <path d="m3051.6 919.39c0.16406 138.25-111.77 250.45-250.02 250.61-138.24 0.16406-250.45-111.77-250.61-250.02-0.16406-138.24 111.77-250.45 250.02-250.61 138.25-0.16406 250.45 111.77 250.61 250.02"/>
  <path d="m3420 1560.9c-56.25-8.4375-109.69 30.938-118.12 87.188l-98.438 638.44v2.8125c-19.688 168.75-151.88 306.56-317.81 337.5l-253.12 14.062c-56.25 2.8125-101.25 53.438-98.438 109.69s47.812 98.438 104.06 98.438h5.625l267.19-14.062h5.625c129.38-22.5 244.69-81.562 334.69-177.19 90-92.812 146.25-210.94 163.12-340.31l98.438-632.81c2.8125-61.875-36.562-115.31-92.812-123.75z"/>
 </g>
</svg>
