<?xml version="1.0" encoding="UTF-8"?>
<svg width="3600pt" height="3600pt" version="1.1" viewBox="0 0 3600 3600" xmlns="http://www.w3.org/2000/svg">
 <g fill="#F66A2E">
  <path d="m2550.2 2294.1c-0.24609 0.37109-2.4688 3.7578-2.7148 4.1445-10.336 16.371-11.148 37.012-2.1406 54.145 9.0117 17.133 26.477 28.16 45.82 28.926 19.344 0.76172 37.629-8.8516 47.961-25.219l-43.844-31.941 45.078 30.051c8.0898-11.953 11.074-26.645 8.293-40.809-2.7812-14.164-11.098-26.633-23.109-34.641-12.012-8.0078-26.723-10.891-40.867-8.0078-14.145 2.8789-26.555 11.285-34.477 23.352z"/>
  <path d="m2526.9 1103.8c-10.016-10.16-23.684-15.887-37.953-15.906-14.27-0.015625-27.949 5.6797-37.992 15.816-10.184 10.281-15.906 24.16-15.926 38.629-0.019531 14.473 5.6641 28.367 15.82 38.676 9.7109 10.645 23.262 16.98 37.66 17.609 14.395 0.62891 28.445-4.5039 39.047-14.262 10.602-9.7578 16.879-23.336 17.445-37.734 0.56641-14.395-4.6289-28.426-14.434-38.984z"/>
  <path d="m2688.2 1326-1.6914-3.1758h-0.003906c-6.7383-12.477-18.227-21.711-31.863-25.609-13.637-3.8984-28.266-2.1367-40.586 4.8867-12.645 7.2188-21.961 19.094-25.969 33.086-4.0078 13.996-2.3867 29.004 4.5195 41.816 6.7461 12.715 18.27 22.219 32.031 26.422 13.766 4.2031 28.633 2.7578 41.328-4.0156 12.695-6.7734 22.176-18.32 26.348-32.094 4.168-13.77 2.6914-28.637-4.1133-41.316z"/>
  <path d="m2676.4 1602.3c4.0117 18.941 17.828 34.301 36.238 40.297 18.41 5.9922 38.617 1.7109 53.016-11.238 14.395-12.945 20.793-32.59 16.777-51.527l-1.1289-4.8867c-3.3633-13.852-12.137-25.777-24.363-33.109-12.223-7.332-26.875-9.457-40.68-5.9023-14.031 3.6094-26.074 12.594-33.531 25.012-7.4609 12.422-9.7305 27.273-6.3281 41.355z"/>
  <path d="m2653.3 2081.3c-5.6875 18.5-1.0781 38.629 12.098 52.809 13.18 14.176 32.918 20.246 51.785 15.926 18.863-4.3242 33.992-18.383 39.68-36.883l0.67188-1.9922c6.207-18.336 2.1602-38.59-10.617-53.133-12.777-14.543-32.34-21.168-51.324-17.375-18.98 3.793-34.5 17.426-40.707 35.762z"/>
  <path d="m2316.4 935.83c-16.57-9.9531-37.188-10.324-54.105-0.97656-16.918 9.3477-27.574 26.996-27.969 46.324-0.39453 19.324 9.5352 37.395 26.059 47.422l3.8086 2.2773c16.723 9.7539 37.379 9.8438 54.188 0.23828 16.809-9.6055 27.219-27.449 27.305-46.809 0.085938-19.359-10.164-37.293-26.887-47.047z"/>
  <path d="m2042.6 934.91c13.871 3.8086 28.691 1.9414 41.188-5.1875 12.492-7.1289 21.641-18.934 25.426-32.812 3.7852-13.879 1.8906-28.695-5.2578-41.18-7.1484-12.48-18.969-21.609-32.855-25.371l-3.4922-0.95312c-18.664-5.0547-38.605 0.22266-52.332 13.844-13.723 13.621-19.148 33.523-14.234 52.223 4.9102 18.703 19.418 33.371 38.066 38.484z"/>
  <path d="m2697.3 1840.5-0.14062 3.6328c-0.37891 14.199 4.918 27.965 14.715 38.246 9.7969 10.285 23.289 16.242 37.488 16.551l1.9414 0.035156v0.003906c14.059-0.20703 27.504-5.7812 37.586-15.582s16.031-23.09 16.629-37.137l0.070313-2.5742c0.42578-14.363-4.875-28.309-14.73-38.762-9.8555-10.457-23.465-16.566-37.828-16.988-14.281-0.14063-28.066 5.2578-38.457 15.059s-16.582 23.246-17.273 37.516z"/>
  <path d="m1800 2806.6c127.12 0.19922 253.12-23.781 371.28-70.656 118.16-46.879 226.33-115.8 318.75-203.09 10.496-9.8438 16.648-23.457 17.098-37.84 0.44531-14.383-4.8477-28.352-14.711-38.828-9.8672-10.477-23.496-16.594-37.879-17.008-14.387-0.41406-28.344 4.9141-38.797 14.805-142.83 134.49-325.77 218.52-520.86 239.25-195.09 20.727-391.59-22.988-559.5-124.47-167.9-101.48-297.96-255.14-370.3-437.5-72.344-182.36-82.992-383.39-30.316-572.38 52.672-188.98 165.77-355.52 322.02-474.17 156.24-118.65 347.03-182.88 543.22-182.88 0.61328 0 1.1836-0.16016 1.793-0.17969 0.60938 0.019532 1.1914 0.17969 1.8047 0.17969 19.355 0 37.242-10.328 46.922-27.094 9.6797-16.762 9.6797-37.414 0-54.18-9.6797-16.762-27.566-27.09-46.922-27.09h-3.5977c-212.56 0-419.67 67.293-591.64 192.23-171.96 124.94-299.96 301.12-365.65 503.28-65.684 202.16-65.684 419.93 0 622.09 65.688 202.16 193.69 378.34 365.65 503.28 171.97 124.94 379.08 192.23 591.64 192.23z"/>
  <path d="m1746.4 1805.4c0.33203 3.3867 0.98438 6.7383 1.9453 10 2.0039 9.5781 6.6406 18.41 13.383 25.5l356.86 356.85h0.003906c10.152 10.195 23.941 15.93 38.328 15.945 14.387 0.011719 28.188-5.6953 38.359-15.867 10.176-10.176 15.883-23.977 15.867-38.363-0.011719-14.387-5.75-28.176-15.941-38.328l-340.99-340.97v-484.84c0-19.355-10.324-37.242-27.09-46.922-16.762-9.6758-37.418-9.6758-54.18 0-16.766 9.6797-27.09 27.566-27.09 46.922v504.68c0 0.58594 0.15625 1.1289 0.17188 1.7109-0.019532 1.25 0.30469 2.4336 0.37109 3.6836z"/>
 </g>
</svg>
