<?xml version="1.0" encoding="UTF-8"?>
<svg width="3600pt" height="3600pt" version="1.1" viewBox="0 0 3600 3600" xmlns="http://www.w3.org/2000/svg">
 <path d="m1835.7 3240.4-783.21-783.18h-641.7c-92.195 0-167.33-75.133-167.33-167.33v-979.81c0-92.195 75.133-167.33 167.33-167.33h641.7l783.21-783.22c105.62-105.62 285.62-29.699 285.62 118.3v953.64c77.832 13.246 147.74 50.832 201.6 104.62l0.10938-0.10938c150.55 150.55 140.98 400.89-0.10938 527.87l0.10938 0.10938c-53.746 53.746-123.73 91.297-201.71 104.51v953.61c-0.003906 148.07-180 223.95-285.63 118.33zm972.69-2343.4c-62.531-52.02 16.777-147.35 79.309-95.363 625 519.62 625 1477 0 1996.6-62.531 52.02-141.84-43.379-79.309-95.363 564.84-469.62 565.05-1336.4 0-1805.9zm-326.23 331.09c383.72 284.4 383.69 859.29 0 1143.7-65.41 48.492 8.5312 148.25 73.98 99.758 451.08-334.37 451.08-1008.9 0-1343.2-65.41-48.461-139.39 51.297-73.98 99.789zm-360.83 330.59v482.47c43.598-11.34 82.656-34.273 113.65-65.27l0.10937 0.10937c97.488-97.668 97.488-254.38-0.10937-351.97l0.10937-0.10938c-35.57-32.035-64.082-52.379-113.76-65.23zm-999.04 792.18 801.47 801.47c26.82 26.82 72.973 9.0703 72.973-30.238v-2644.3c0-39.348-46.152-57.059-72.973-30.238l-800.43 800.42c-11.34 11.879-27.359 19.332-45.07 19.332h-667.48c-23.473 0-42.73 19.262-42.73 42.77v979.81c0 23.473 19.262 42.77 42.73 42.77l667.48 0.035156c15.949-0.074219 31.859 6.0117 44.027 18.141z" fill="#fff" fill-rule="evenodd"/>
</svg>
